<svg width="769" height="173" viewBox="0 0 769 173" fill="none" xmlns="http://www.w3.org/2000/svg">
<path d="M614.066 158.887C611.345 159.819 608.525 160.234 605.792 160.254V160.234H162.441C159.949 160.153 157.402 159.728 154.931 158.887C131.748 150.966 136.844 130.75 106.629 123.133C105.298 122.799 104.006 122.536 102.746 122.333C116.133 116.023 125.428 102.329 125.428 86.4982C125.428 70.6672 116.133 56.9836 102.745 50.6634C104.006 50.4608 105.298 50.1975 106.629 49.8633C136.844 42.2567 131.748 22.03 154.931 14.1095C157.655 13.1878 160.473 12.7623 163.206 12.7522V12.7725H606.557C609.051 12.8535 611.598 13.2688 614.066 14.1095C637.252 22.03 632.154 42.2567 662.371 49.8633C662.905 49.9949 663.436 50.1164 663.957 50.2279C650.063 56.3354 640.324 70.2925 640.324 86.4982C640.324 102.704 650.063 116.661 663.957 122.769C663.436 122.88 662.905 123.002 662.371 123.133C632.154 130.75 637.252 150.966 614.066 158.887ZM51.1291 86.4982C51.1291 67.102 66.8192 51.3116 86.1057 51.3116C105.391 51.3116 121.082 67.102 121.082 86.4982C121.082 105.904 105.391 121.685 86.1057 121.685C66.8192 121.685 51.1291 105.904 51.1291 86.4982ZM714.625 86.4982C714.625 105.904 698.933 121.685 679.649 121.685C660.363 121.685 644.67 105.904 644.67 86.4982C644.67 67.102 660.363 51.3116 679.649 51.3116C698.933 51.3116 714.625 67.102 714.625 86.4982ZM768.823 134.062C768.823 134.062 767.931 129.656 764.633 130.517C761.126 131.429 761.865 134.295 762.217 135.703C762.569 137.121 764.181 138.549 765.954 137.577C765.828 137.901 765.581 138.184 765.324 138.438C764.173 139.602 761.521 139.714 757.866 138.741C753.56 137.597 750.63 135.419 747.793 133.312C742.73 129.555 737.946 126 727.281 129.636C720.292 132.016 715.855 137.485 714.786 145.041C713.761 152.263 715.96 159.971 720.501 166.291C720.501 166.291 712.062 163.212 709.002 150.906C703.691 129.565 720.414 130.76 720.414 130.76C720.414 130.76 716.898 125.027 711.84 126.303C702.144 128.744 704.539 143.167 704.539 143.167C704.539 143.167 699.415 131.327 687.407 125.28C705.386 121.644 718.971 105.641 718.971 86.4982C718.971 67.3552 705.386 51.3521 687.407 47.716C699.415 41.6692 704.539 29.8289 704.539 29.8289C704.539 29.8289 702.144 44.252 711.84 46.6929C716.898 47.9691 720.414 42.2466 720.414 42.2466C720.414 42.2466 703.691 43.4417 709.002 22.0907C712.062 9.79467 720.497 6.7156 720.497 6.7156C715.96 13.0358 713.761 20.7436 714.786 27.9551C715.855 35.511 720.292 40.9906 727.281 43.3708C737.946 46.9968 742.73 43.4518 747.793 39.6942C750.63 37.5874 753.56 35.4098 757.866 34.2551C761.521 33.2828 764.173 33.3942 765.324 34.559C765.581 34.8223 765.828 35.0958 765.954 35.4199C764.181 34.4475 762.569 35.8757 762.217 37.2937C761.865 38.7117 761.126 41.578 764.633 42.4896C767.931 43.3404 768.823 38.9345 768.823 38.9345C769.031 37.8609 769.436 34.5894 767.38 32.5029C765.411 30.5075 761.96 30.153 757.128 31.4394C755.264 31.9357 753.595 32.827 752.122 33.5866C753.268 30.7 754.204 26.8714 752.786 23.215C751.452 19.7814 748.332 17.4214 743.516 16.206C738.214 14.8791 733.704 18.252 732.565 22.1515C731.648 25.2913 733.2 28.0767 736.329 29.2212C736.329 29.2212 740.383 30.5582 741.604 27.2968C742.822 24.0556 740.57 22.901 739.062 22.5262C737.55 22.1414 735.729 21.8679 735.229 24.3291C735.194 23.9037 735.233 23.3568 735.346 22.9719C736.012 20.7031 738.976 18.0696 742.813 19.042C746.663 20.0042 749.11 21.7666 750.083 24.2684C752.052 29.3124 747.915 35.9364 747.871 36.0073C747.193 36.4935 746.702 36.8784 746.072 37.3443C741.252 40.9197 737.445 43.7456 728.211 40.6057C722.309 38.6003 718.563 33.9614 717.654 27.5399C716.32 18.1406 721.414 7.34351 730.04 1.28664C730.04 1.28664 723.943 -2.33941 716.842 2.58307C709.745 7.50555 705.664 16.8948 702.957 22.9719C700.25 29.0491 690.757 51.6053 664.9 45.0927C646.773 40.5247 650.746 25.1495 651.662 21.4728C652.575 17.7962 656.656 6.80676 671.97 10.6657C680.545 12.8231 679.35 20.0346 678.611 23.0023C677.985 25.5041 675.529 29.1199 671.175 28.4312C672.197 24.3392 667.772 22.4351 667.494 22.3642C667.212 22.2933 662.457 20.9968 661.166 26.1826C659.854 31.4596 666.321 32.9384 666.321 32.9384C673.171 34.6602 679.606 34.0931 683.14 24.5925C685.391 18.5559 682.018 15.2944 682.018 15.2944C682.018 15.2944 684.865 16.4694 688.802 16.8543C696.299 17.5936 699.658 11.6279 700.432 8.51847C701.792 3.05917 696.712 1.40818 696.434 1.33728C696.151 1.26638 691.397 -0.0300161 690.106 5.14568C688.793 10.4328 693.883 11.5165 693.883 11.5165C693.883 11.5165 691.753 13.3903 686.129 11.9825C680.51 10.5645 676.786 6.91814 670.602 5.35834C664.422 3.80867 651.172 5.4292 647.585 19.8523C643.996 34.2652 651.058 41.3046 651.058 41.3046C651.058 41.3046 636.057 30.7709 639.542 16.7732C641.441 9.13631 647.973 9.88582 647.973 9.88582C647.973 9.88582 647.664 6.90803 642.423 5.78376C638.312 4.89244 635.678 9.49083 635.291 12.8434C635.018 15.1932 634.787 22.0806 637.069 27.469C635.518 24.2278 628.665 11.9318 612.489 7.86011C610.555 7.37394 608.586 7.141 606.604 7.12075H163.206C160.949 7.08023 158.705 7.30304 156.511 7.86011C140.333 11.9318 133.48 24.2278 131.929 27.469C134.213 22.0806 133.979 15.1932 133.71 12.8434C133.321 9.49083 130.685 4.89244 126.574 5.78376C121.334 6.90803 121.024 9.88582 121.024 9.88582C121.024 9.88582 127.559 9.13631 129.459 16.7732C132.94 30.7709 117.941 41.3046 117.941 41.3046C117.941 41.3046 125.002 34.2652 121.413 19.8523C117.826 5.4292 104.58 3.80867 98.3958 5.35834C92.213 6.91814 88.4888 10.5645 82.8678 11.9825C77.2468 13.3903 75.1184 11.5165 75.1184 11.5165C75.1184 11.5165 80.2058 10.4328 78.8919 5.14568C77.6032 -0.0300161 72.848 1.26638 72.5671 1.33728C72.2852 1.40818 67.2079 3.05917 68.567 8.51847C69.3403 11.6279 72.702 17.5936 80.1987 16.8543C84.1343 16.4694 86.9796 15.2944 86.9796 15.2944C86.9796 15.2944 83.6078 18.5559 85.858 24.5925C89.3939 34.0931 95.8284 34.6602 102.679 32.9384C102.679 32.9384 109.146 31.4596 107.832 26.1826C106.543 20.9968 101.788 22.2933 101.506 22.3642C101.225 22.4351 96.804 24.3392 97.8239 28.4312C93.4695 29.1199 91.0119 25.5041 90.3897 23.0023C89.6507 20.0346 88.4546 12.8231 97.0265 10.6657C112.345 6.80676 116.424 17.7962 117.338 21.4728C118.253 25.1495 122.227 40.5247 104.098 45.0927C78.2405 51.6053 68.7483 29.0491 66.041 22.9719C63.3337 16.8948 59.2561 7.50555 52.1571 2.58307C45.058 -2.33941 38.9588 1.28664 38.9588 1.28664C47.5841 7.34351 52.6776 18.1406 51.3466 27.5399C50.4384 33.9614 46.6881 38.6003 40.7871 40.6057C31.5547 43.7456 27.7469 40.9197 22.9263 37.3443C22.2951 36.8784 21.8068 36.4935 21.1272 36.0073C21.0829 35.9364 16.9474 29.3124 18.9161 24.2684C19.8908 21.7666 22.3363 20.0042 26.1844 19.042C30.0254 18.0696 32.9894 20.7031 33.6529 22.9719C33.7646 23.3568 33.8069 23.9037 33.7697 24.3291C33.2683 21.8679 31.45 22.1414 29.9388 22.5262C28.4285 22.901 26.1793 24.0556 27.3935 27.2968C28.6148 30.5582 32.6682 29.2212 32.6682 29.2212C35.8014 28.0767 37.3499 25.2913 36.4327 22.1515C35.295 18.252 30.7845 14.8791 25.4806 16.206C20.666 17.4214 17.5489 19.7814 16.2142 23.215C14.7957 26.8714 15.7306 30.7 16.8761 33.5866C15.4032 32.827 13.7363 31.9357 11.8723 31.4394C7.03837 30.153 3.58894 30.5075 1.61992 32.5029C-0.436085 34.5894 -0.0306457 37.8609 0.177462 38.9345C0.177462 38.9345 1.0694 43.3404 4.36559 42.4896C7.87271 41.578 7.13442 38.7117 6.78284 37.2937C6.43126 35.8757 4.81936 34.4475 3.04485 35.4199C3.1702 35.0958 3.41959 34.8223 3.67552 34.559C4.82852 33.3942 7.47593 33.2828 11.1304 34.2551C15.4373 35.4098 18.3698 37.5874 21.2057 39.6942C26.2689 43.4518 31.0523 46.9968 41.7164 43.3708C48.7057 40.9906 53.1447 35.511 54.215 27.9551C55.2369 20.7436 53.039 13.0358 48.5003 6.7156C48.5003 6.7156 56.9374 9.79467 59.9971 22.0907C65.309 43.4417 48.5839 42.2466 48.5839 42.2466C48.5839 42.2466 52.0987 47.9691 57.1579 46.6929C66.8555 44.252 64.4613 29.8289 64.4613 29.8289C64.4613 29.8289 69.3564 41.1425 80.7958 47.3007C61.616 49.924 46.7837 66.4943 46.7837 86.4982C46.7837 106.502 61.615 123.083 80.7958 125.696C69.3564 131.854 64.4613 143.167 64.4613 143.167C64.4613 143.167 66.8555 128.744 57.1579 126.303C52.0987 125.037 48.5839 130.76 48.5839 130.76C48.5839 130.76 65.309 129.565 59.9971 150.906C56.9374 163.212 48.5003 166.291 48.5003 166.291C53.039 159.971 55.2369 152.263 54.215 145.051C53.1447 137.485 48.7057 132.016 41.7164 129.636C31.0523 126 26.2689 129.555 21.2057 133.312C18.3698 135.419 15.4373 137.597 11.1304 138.741C7.47593 139.714 4.82852 139.612 3.67552 138.438C3.41959 138.184 3.1702 137.901 3.04485 137.577C4.81936 138.549 6.43126 137.121 6.78284 135.703C7.13442 134.295 7.87271 131.429 4.36559 130.517C1.0694 129.656 0.177462 134.062 0.177462 134.062C-0.0306457 135.146 -0.436085 138.407 1.61992 140.494C3.58894 142.489 7.03837 142.843 11.8723 141.557C13.7363 141.061 15.4032 140.169 16.8761 139.41C15.7306 142.307 14.7957 146.135 16.2142 149.781C17.5489 153.225 20.666 155.575 25.4806 156.79C30.7845 158.127 35.295 154.744 36.4327 150.845C37.3499 147.705 35.8014 144.92 32.6682 143.785C32.6682 143.785 28.6148 142.438 27.3935 145.7C26.1793 148.941 28.4285 150.095 29.9388 150.48C31.45 150.855 33.2683 151.129 33.7697 148.667C33.8069 149.093 33.7646 149.64 33.6529 150.025C32.9894 152.293 30.0254 154.927 26.1844 153.965C22.3363 152.992 19.8908 151.23 18.9161 148.728C16.9474 143.684 21.0829 137.06 21.1272 136.989C21.8068 136.513 22.2951 136.128 22.9263 135.652C27.7469 132.077 31.5547 129.251 40.7871 132.391C46.6881 134.406 50.4384 139.045 51.3466 145.457C52.6776 154.856 47.5841 165.663 38.9588 171.72C38.9588 171.72 45.058 175.336 52.1571 170.413C59.2561 165.491 63.3337 156.102 66.041 150.025C68.7483 143.947 78.2405 121.401 104.098 127.914C122.227 132.472 118.253 147.847 117.338 151.524C116.424 155.2 112.345 166.19 97.0265 162.331C88.4546 160.173 89.6507 152.962 90.3897 149.994C91.0119 147.492 93.4695 143.877 97.8239 144.565C96.804 148.667 101.225 150.561 101.506 150.632C101.788 150.703 106.543 152 107.832 146.814C109.146 141.537 102.679 140.068 102.679 140.068C95.8284 138.346 89.3939 138.913 85.858 148.404C83.6078 154.451 86.9796 157.702 86.9796 157.702C86.9796 157.702 84.1343 156.537 80.1987 156.142C72.702 155.403 69.3403 161.368 68.567 164.488C67.2079 169.947 72.2852 171.598 72.5671 171.669C72.848 171.74 77.6032 173.026 78.8919 167.851C80.2058 162.574 75.1184 161.48 75.1184 161.48C75.1184 161.48 77.2468 159.606 82.8678 161.024C88.4888 162.442 92.213 166.078 98.3958 167.638C104.58 169.198 117.826 167.567 121.413 153.154C125.002 138.731 117.941 131.692 117.941 131.692C117.941 131.692 132.94 142.236 129.459 156.233C127.559 163.86 121.024 163.121 121.024 163.121C121.024 163.121 121.334 166.088 126.574 167.223C130.685 168.104 133.321 163.516 133.71 160.153C133.979 157.813 134.213 150.916 131.929 145.538C133.48 148.769 140.333 161.075 156.511 165.146C158.442 165.633 160.412 165.866 162.397 165.876V165.886L605.792 165.876C608.052 165.926 610.294 165.693 612.489 165.146C628.665 161.075 635.518 148.769 637.069 145.538C634.787 150.916 635.018 157.813 635.291 160.153C635.678 163.516 638.312 168.104 642.423 167.223C647.664 166.088 647.973 163.121 647.973 163.121C647.973 163.121 641.441 163.86 639.542 156.233C636.057 142.236 651.058 131.692 651.058 131.692C651.058 131.692 643.996 138.731 647.585 153.154C651.172 167.567 664.422 169.198 670.602 167.638C676.786 166.078 680.51 162.442 686.129 161.024C691.753 159.606 693.883 161.48 693.883 161.48C693.883 161.48 688.793 162.564 690.106 167.851C691.397 173.026 696.151 171.74 696.434 171.669C696.712 171.598 701.792 169.947 700.432 164.478C699.658 161.369 696.299 155.403 688.802 156.142C684.865 156.537 682.018 157.702 682.018 157.702C682.018 157.702 685.391 154.451 683.14 148.404C679.606 138.903 673.171 138.346 666.321 140.068C666.321 140.068 659.854 141.537 661.166 146.814C662.457 152 667.212 150.703 667.494 150.632C667.772 150.561 672.197 148.667 671.175 144.565C675.529 143.877 677.985 147.492 678.611 149.994C679.35 152.962 680.545 160.173 671.97 162.331C656.656 166.19 652.575 155.2 651.662 151.524C650.746 147.847 646.773 132.472 664.9 127.914C690.757 121.401 700.25 143.947 702.957 150.025C705.664 156.102 709.745 165.491 716.842 170.413C723.943 175.336 730.04 171.72 730.04 171.72C721.414 165.663 716.32 154.856 717.654 145.457C718.563 139.045 722.309 134.406 728.211 132.391C737.445 129.251 741.252 132.077 746.072 135.652C746.702 136.128 747.193 136.513 747.871 136.989C747.915 137.06 752.052 143.684 750.083 148.728C749.11 151.23 746.663 152.992 742.813 153.965C738.976 154.927 736.012 152.293 735.346 150.025C735.233 149.64 735.194 149.093 735.229 148.667C735.729 151.129 737.55 150.855 739.062 150.47C740.57 150.095 742.822 148.941 741.604 145.7C740.383 142.438 736.329 143.785 736.329 143.785C733.2 144.92 731.648 147.705 732.565 150.845C733.704 154.744 738.214 158.127 743.516 156.79C748.332 155.575 751.452 153.225 752.786 149.781C754.204 146.135 753.268 142.307 752.122 139.41C753.595 140.169 755.264 141.061 757.128 141.557C761.96 142.843 765.411 142.489 767.38 140.494C769.436 138.407 769.031 135.146 768.823 134.062Z" fill="#231F20"/>
</svg>
