<svg fill="none" xmlns="http://www.w3.org/2000/svg" viewBox="0 -0.03 769.02 134.03">
<path d="M614.066 123.069C611.345 123.79 608.525 124.112 605.792 124.128V124.112H162.441C159.949 124.049 157.402 123.72 154.931 123.069C131.748 116.934 136.844 101.274 106.629 95.3748C105.298 95.1159 104.006 94.912 102.746 94.7551C116.133 89.8675 122 79.2607 122 66.9986C122 54.7365 116.133 44.1376 102.745 39.2421C104.006 39.0852 105.298 38.8813 106.629 38.6224C136.844 32.7306 131.748 17.0637 154.931 10.9287C157.655 10.2148 160.473 9.88525 163.206 9.8774V9.89311H606.557C609.051 9.95587 611.598 10.2775 614.066 10.9287C637.252 17.0637 632.154 32.7306 662.37 38.6224C662.905 38.7244 663.436 38.8185 663.957 38.9048C650.063 43.6355 643.5 53.4476 643.5 66C643.5 78.5524 650.063 90.3618 663.957 95.0924C663.436 95.1787 662.905 95.2729 662.37 95.3748C632.154 101.274 637.252 116.934 614.066 123.069ZM57.1579 66.9986C57.1579 51.9749 66.8192 39.7443 86.1057 39.7443C105.391 39.7443 116.5 51.9749 116.5 66.9986C116.5 82.0301 105.391 94.253 86.1057 94.253C66.8192 94.253 57.1579 82.0301 57.1579 66.9986ZM709.002 66.9986C709.002 82.0301 698.933 94.253 679.649 94.253C660.363 94.253 649.5 82.0301 649.5 66.9986C649.5 51.9749 660.363 39.7443 679.649 39.7443C698.933 39.7443 709.002 51.9749 709.002 66.9986ZM768.823 103.84C768.823 103.84 767.931 100.427 764.633 101.094C761.126 101.8 761.865 104.02 762.217 105.111C762.569 106.209 764.181 107.315 765.954 106.562C765.828 106.813 765.581 107.033 765.324 107.229C764.173 108.131 761.521 108.218 757.866 107.464C753.56 106.578 750.63 104.891 747.793 103.259C742.73 100.349 737.946 97.5951 727.281 100.412C720.292 102.255 715.855 106.492 714.786 112.344C713.761 117.938 715.96 123.908 720.501 128.803C720.501 128.803 712.062 126.418 709.002 116.887C703.691 100.357 720.414 101.282 720.414 101.282C720.414 101.282 716.898 96.8419 711.84 97.8304C702.144 99.7211 704.539 110.893 704.539 110.893C704.539 110.893 699.415 101.722 687.407 97.038C705.386 94.2216 714.786 81.8261 714.786 66.9986C714.786 52.1711 705.386 39.7756 687.407 36.9592C699.415 32.2756 704.539 23.1044 704.539 23.1044C704.539 23.1044 702.144 34.2761 711.84 36.1668C716.898 37.1553 720.414 32.7228 720.414 32.7228C720.414 32.7228 703.691 33.6485 709.002 17.1107C712.062 7.58661 720.497 5.20168 720.497 5.20168C715.96 10.0971 713.761 16.0673 714.786 21.6531C715.855 27.5056 720.292 31.7499 727.281 33.5936C737.946 36.4022 742.73 33.6563 747.793 30.7458C750.63 29.1139 753.56 27.4272 757.866 26.5328C761.521 25.7797 764.173 25.866 765.324 26.7682C765.581 26.9722 765.828 27.184 765.954 27.435C764.181 26.6819 762.569 27.7881 762.217 28.8864C761.865 29.9847 761.126 32.2049 764.633 32.911C767.931 33.57 768.823 30.1574 768.823 30.1574C769.031 29.3258 769.436 26.7917 767.38 25.1756C765.411 23.6301 761.96 23.3555 757.128 24.3519C755.264 24.7363 753.595 25.4267 752.122 26.0151C753.268 23.7792 754.204 20.8137 752.786 17.9815C751.452 15.322 748.332 13.494 743.516 12.5526C738.214 11.5249 733.704 14.1374 732.565 17.1578C731.648 19.5898 733.2 21.7472 736.329 22.6337C736.329 22.6337 740.383 23.6693 741.604 21.1431C742.822 18.6327 740.57 17.7383 739.062 17.4481C737.55 17.1499 735.729 16.9381 735.229 18.8445C735.194 18.515 735.233 18.0914 735.346 17.7933C736.012 16.0359 738.976 13.9961 742.813 14.7493C746.663 15.4946 749.11 16.8597 750.083 18.7975C752.052 22.7044 747.915 27.8351 747.871 27.89C747.193 28.2666 746.702 28.5648 746.072 28.9256C741.252 31.695 737.445 33.8839 728.211 31.4518C722.309 29.8985 718.563 26.3054 717.654 21.3315C716.32 14.0511 721.414 5.68804 730.04 0.996582C730.04 0.996582 723.943 -1.81204 716.842 2.00075C709.745 5.81354 705.664 13.0861 702.957 17.7933C700.25 22.5004 690.757 39.9717 664.9 34.9272C646.773 31.389 650.746 19.48 651.662 16.6321C652.575 13.7843 656.656 5.27228 671.97 8.26131C680.545 9.93235 679.35 15.5181 678.611 17.8168C677.985 19.7546 675.53 22.5553 671.175 22.0218C672.197 18.8523 667.772 17.3775 667.494 17.3226C667.212 17.2677 662.457 16.2634 661.166 20.2802C659.855 24.3675 666.321 25.513 666.321 25.513C673.171 26.8467 679.606 26.4074 683.14 19.0485C685.391 14.3728 682.018 11.8465 682.018 11.8465C682.018 11.8465 684.865 12.7566 688.802 13.0547C696.299 13.6274 699.658 9.0066 700.432 6.59811C701.792 2.36952 696.712 1.09071 696.434 1.0358C696.151 0.98088 691.397 -0.023262 690.106 3.98566C688.793 8.08087 693.883 8.92027 693.883 8.92027C693.883 8.92027 691.753 10.3717 686.129 9.2812C680.51 8.18286 676.786 5.35854 670.602 4.15038C664.422 2.95005 651.172 4.20527 647.586 15.3769C643.996 26.5407 651.058 31.9932 651.058 31.9932C651.058 31.9932 636.056 23.8341 639.542 12.992C641.441 7.07667 647.973 7.65721 647.973 7.65721C647.973 7.65721 647.664 5.35071 642.423 4.47989C638.312 3.78951 635.678 7.35127 635.291 9.94804C635.018 11.7681 634.787 17.1029 637.069 21.2765C635.518 18.766 628.665 9.24195 612.489 6.08817C610.555 5.71159 608.586 5.53116 606.604 5.51547H163.206C160.949 5.48409 158.705 5.65668 156.511 6.08817C140.333 9.24195 133.48 18.766 131.929 21.2765C134.213 17.1029 133.979 11.7681 133.71 9.94804C133.321 7.35127 130.685 3.78951 126.574 4.47989C121.334 5.35071 121.024 7.65721 121.024 7.65721C121.024 7.65721 127.559 7.07667 129.459 12.992C132.94 23.8341 117.941 31.9932 117.941 31.9932C117.941 31.9932 125.002 26.5407 121.413 15.3769C117.826 4.20527 104.58 2.95005 98.3958 4.15038C92.213 5.35854 88.4888 8.18286 82.8678 9.2812C77.2468 10.3717 75.1184 8.92027 75.1184 8.92027C75.1184 8.92027 80.2058 8.08087 78.8919 3.98566C77.6032 -0.023262 72.848 0.98088 72.5671 1.0358C72.2852 1.09071 67.2079 2.36952 68.567 6.59811C69.3403 9.0066 72.702 13.6274 80.1987 13.0547C84.1344 12.7566 86.9796 11.8465 86.9796 11.8465C86.9796 11.8465 83.6078 14.3728 85.858 19.0485C89.3939 26.4074 95.8284 26.8467 102.679 25.513C102.679 25.513 109.146 24.3675 107.832 20.2802C106.543 16.2634 101.788 17.2677 101.506 17.3226C101.225 17.3775 96.804 18.8523 97.8239 22.0218C93.4695 22.5553 91.0119 19.7546 90.3897 17.8168C89.6507 15.5181 88.4546 9.93235 97.0265 8.26131C112.345 5.27228 116.424 13.7843 117.338 16.6321C118.253 19.48 122.227 31.389 104.098 34.9272C78.2405 39.9717 68.7483 22.5004 66.041 17.7933C63.3337 13.0861 59.2561 5.81354 52.1571 2.00075C45.058 -1.81204 38.9588 0.996582 38.9588 0.996582C47.5841 5.68804 52.6776 14.0511 51.3466 21.3315C50.4384 26.3054 46.6881 29.8985 40.7871 31.4518C31.5547 33.8839 27.7469 31.695 22.9263 28.9256C22.2951 28.5648 21.8068 28.2666 21.1272 27.89C21.0829 27.8351 16.9474 22.7044 18.9161 18.7975C19.8908 16.8597 22.3363 15.4946 26.1844 14.7493C30.0254 13.9961 32.9894 16.0359 33.6529 17.7933C33.7646 18.0914 33.8069 18.515 33.7697 18.8445C33.2683 16.9381 31.45 17.1499 29.9388 17.4481C28.4285 17.7383 26.1793 18.6327 27.3935 21.1431C28.6148 23.6693 32.6682 22.6337 32.6682 22.6337C35.8014 21.7472 37.3499 19.5898 36.4327 17.1578C35.295 14.1374 30.7845 11.5249 25.4806 12.5526C20.666 13.494 17.5489 15.322 16.2142 17.9815C14.7957 20.8137 15.7306 23.7792 16.8761 26.0151C15.4032 25.4267 13.7363 24.7363 11.8723 24.3519C7.03837 23.3555 3.58894 23.6301 1.61992 25.1756C-0.436085 26.7917 -0.0306457 29.3258 0.177462 30.1574C0.177462 30.1574 1.0694 33.57 4.36559 32.911C7.87271 32.2049 7.13442 29.9847 6.78284 28.8864C6.43126 27.7881 4.81936 26.6819 3.04485 27.435C3.1702 27.184 3.41959 26.9722 3.67552 26.7682C4.82852 25.866 7.47593 25.7797 11.1304 26.5328C15.4373 27.4272 18.3698 29.1139 21.2057 30.7458C26.2689 33.6563 31.0523 36.4022 41.7164 33.5936C48.7057 31.7499 53.1447 27.5056 54.215 21.6531C55.2369 16.0673 53.039 10.0971 48.5003 5.20168C48.5003 5.20168 56.9374 7.58661 59.9971 17.1107C65.309 33.6485 48.5839 32.7228 48.5839 32.7228C48.5839 32.7228 52.0987 37.1553 57.1579 36.1668C66.8555 34.2761 64.4613 23.1044 64.4613 23.1044C64.4613 23.1044 69.3564 31.8676 80.7958 36.6375C61.616 38.6694 52 51.5042 52 66.9986C52 82.4929 61.615 95.3356 80.7958 97.3597C69.3564 102.13 64.4613 110.893 64.4613 110.893C64.4613 110.893 66.8555 99.7211 57.1579 97.8304C52.0987 96.8497 48.5839 101.282 48.5839 101.282C48.5839 101.282 65.309 100.357 59.9971 116.887C56.9374 126.418 48.5003 128.803 48.5003 128.803C53.039 123.908 55.2369 117.938 54.215 112.352C53.1447 106.492 48.7057 102.255 41.7164 100.412C31.0523 97.5951 26.2689 100.349 21.2057 103.259C18.3698 104.891 15.4373 106.578 11.1304 107.464C7.47593 108.218 4.82852 108.139 3.67552 107.229C3.41959 107.033 3.1702 106.813 3.04485 106.562C4.81936 107.315 6.43126 106.209 6.78284 105.111C7.13442 104.02 7.87271 101.8 4.36559 101.094C1.0694 100.427 0.177462 103.84 0.177462 103.84C-0.0306457 104.679 -0.436085 107.205 1.61992 108.822C3.58894 110.367 7.03837 110.642 11.8723 109.645C13.7363 109.261 15.4032 108.571 16.8761 107.982C15.7306 110.226 14.7957 113.191 16.2142 116.016C17.5489 118.683 20.666 120.503 25.4806 121.445C30.7845 122.48 35.295 119.86 36.4327 116.839C37.3499 114.407 35.8014 112.25 32.6682 111.371C32.6682 111.371 28.6148 110.328 27.3935 112.854C26.1793 115.365 28.4285 116.259 29.9388 116.557C31.45 116.847 33.2683 117.059 33.7697 115.153C33.8069 115.482 33.7646 115.906 33.6529 116.204C32.9894 117.961 30.0254 120.001 26.1844 119.256C22.3363 118.503 19.8908 117.138 18.9161 115.2C16.9474 111.293 21.0829 106.162 21.1272 106.107C21.8068 105.738 22.2951 105.44 22.9263 105.072C27.7469 102.302 31.5547 100.113 40.7871 102.545C46.6881 104.107 50.4384 107.7 51.3466 112.666C52.6776 119.946 47.5841 128.317 38.9588 133.008C38.9588 133.008 45.058 135.809 52.1571 131.996C59.2561 128.184 63.3337 120.911 66.041 116.204C68.7483 111.497 78.2405 94.0333 104.098 99.0778C122.227 102.608 118.253 114.517 117.338 117.365C116.424 120.213 112.345 128.725 97.0265 125.736C88.4546 124.065 89.6507 118.479 90.3897 116.18C91.0119 114.243 93.4695 111.442 97.8239 111.975C96.804 115.153 101.225 116.62 101.506 116.675C101.788 116.73 106.543 117.734 107.832 113.717C109.146 109.63 102.679 108.492 102.679 108.492C95.8284 107.158 89.3939 107.598 85.858 114.949C83.6078 119.632 86.9796 122.151 86.9796 122.151C86.9796 122.151 84.1344 121.248 80.1987 120.943C72.702 120.37 69.3403 124.991 68.567 127.407C67.2079 131.636 72.2852 132.914 72.5671 132.969C72.848 133.024 77.6032 134.021 78.8919 130.012C80.2058 125.924 75.1184 125.077 75.1184 125.077C75.1184 125.077 77.2468 123.626 82.8678 124.724C88.4888 125.822 92.213 128.639 98.3958 129.847C104.58 131.055 117.826 129.792 121.413 118.628C125.002 107.457 117.941 102.004 117.941 102.004C117.941 102.004 132.94 110.171 129.459 121.013C127.559 126.921 121.024 126.348 121.024 126.348C121.024 126.348 121.334 128.646 126.574 129.525C130.685 130.208 133.321 126.654 133.71 124.049C133.979 122.237 134.213 116.894 131.929 112.729C133.48 115.231 140.333 124.763 156.511 127.917C158.442 128.293 160.412 128.474 162.397 128.482V128.49L605.792 128.482C608.052 128.521 610.294 128.341 612.489 127.917C628.665 124.763 635.518 115.231 637.069 112.729C634.787 116.894 635.018 122.237 635.291 124.049C635.678 126.654 638.312 130.208 642.423 129.525C647.664 128.646 647.973 126.348 647.973 126.348C647.973 126.348 641.441 126.921 639.542 121.013C636.056 110.171 651.058 102.004 651.058 102.004C651.058 102.004 643.996 107.457 647.586 118.628C651.172 129.792 664.422 131.055 670.602 129.847C676.786 128.639 680.51 125.822 686.129 124.724C691.753 123.626 693.883 125.077 693.883 125.077C693.883 125.077 688.793 125.916 690.106 130.012C691.397 134.021 696.151 133.024 696.434 132.969C696.712 132.914 701.792 131.636 700.432 127.399C699.658 124.991 696.299 120.37 688.802 120.943C684.865 121.248 682.018 122.151 682.018 122.151C682.018 122.151 685.391 119.632 683.14 114.949C679.606 107.59 673.171 107.158 666.321 108.492C666.321 108.492 659.855 109.63 661.166 113.717C662.457 117.734 667.212 116.73 667.494 116.675C667.772 116.62 672.197 115.153 671.175 111.975C675.53 111.442 677.985 114.243 678.611 116.18C679.35 118.479 680.545 124.065 671.97 125.736C656.656 128.725 652.575 120.213 651.662 117.365C650.746 114.517 646.773 102.608 664.9 99.0778C690.757 94.0333 700.25 111.497 702.957 116.204C705.664 120.911 709.745 128.184 716.842 131.996C723.943 135.809 730.04 133.008 730.04 133.008C721.414 128.317 716.32 119.946 717.654 112.666C718.563 107.7 722.309 104.107 728.211 102.545C737.445 100.113 741.252 102.302 746.072 105.072C746.702 105.44 747.193 105.738 747.871 106.107C747.915 106.162 752.052 111.293 750.083 115.2C749.11 117.138 746.663 118.503 742.813 119.256C738.976 120.001 736.012 117.961 735.346 116.204C735.233 115.906 735.194 115.482 735.229 115.153C735.729 117.059 737.55 116.847 739.062 116.549C740.57 116.259 742.822 115.365 741.604 112.854C740.383 110.328 736.329 111.371 736.329 111.371C733.2 112.25 731.648 114.407 732.565 116.839C733.704 119.86 738.214 122.48 743.516 121.445C748.332 120.503 751.452 118.683 752.786 116.016C754.204 113.191 753.268 110.226 752.122 107.982C753.595 108.571 755.264 109.261 757.128 109.645C761.96 110.642 765.411 110.367 767.38 108.822C769.436 107.205 769.031 104.679 768.823 103.84Z" fill="#231F20"/>
</svg>