<svg id="ountline-1" enable-background="new 0 0 100 100" height="512" viewBox="0 0 100 100" width="512" xmlns="http://www.w3.org/2000/svg"><path d="m50 54c-.409 0-.777-.248-.929-.628-3.862-9.657-14.921-11.5-20.235-12.386-4.3-.716-11.5-3.889-15.418-5.716-.307-.149-.669-.125-.955.061-.291.182-.467.503-.463.847v9.822h-2v-9.822c0-1.657 1.343-3 3-3 .437 0 .868.095 1.264.279 3.821 1.785 10.838 4.879 14.9 5.557 5.306.886 15.972 2.661 20.836 11.632 4.864-8.971 15.53-10.746 20.836-11.632 4.062-.678 11.079-3.772 14.9-5.557 1.503-.698 3.287-.046 3.985 1.457.184.396.279.827.279 1.264v9.822h-2v-9.822c0-.552-.448-1-1-1-.144 0-.287.031-.418.092-3.913 1.827-11.12 5-15.418 5.716-5.314.886-16.373 2.729-20.235 12.386-.152.38-.52.628-.929.628z"/><path d="m50 62c-.126 0-.25-.023-.367-.07l-40.265-15.918c-.514-.203-1.095.048-1.298.562-.046.117-.07.241-.07.367v1.059h-2v-1.059c.001-1.657 1.345-2.999 3.002-2.998.376 0 .748.071 1.098.209l39.9 15.773 39.9-15.774c1.541-.608 3.284.15 3.891 1.691.138.35.209.723.209 1.099v1.059h-2v-1.059c0-.552-.448-1-1-1-.126 0-.25.024-.367.07l-40.266 15.919c-.117.047-.241.07-.367.07z"/><path d="m50 73c-.131 0-.261-.026-.382-.076l-44.764-18.489c-1.124-.462-1.857-1.558-1.854-2.773v-1.672c0-1.657 1.343-3 2.999-3.001.393 0 .783.077 1.147.228l42.854 17.698 42.854-17.7c1.531-.633 3.286.095 3.918 1.626.151.365.228.755.228 1.149v1.672c.003 1.215-.73 2.311-1.854 2.773l-44.764 18.489c-.121.05-.251.076-.382.076zm-44-24.012c-.552 0-1 .448-1 1v1.672c0 .405.244.769.618.924l44.382 18.334 44.382-18.332c.374-.155.618-.519.618-.924v-1.672c0-.552-.447-1-.999-1.001-.131 0-.261.026-.383.076l-43.236 17.856c-.245.1-.519.1-.764 0l-43.236-17.856c-.121-.05-.251-.076-.382-.077z"/><path d="m26.02 85h-10.137c-1.105 0-2-.895-2.001-1.999 0-.729.396-1.4 1.034-1.752l25.6-14.124.966 1.75-25.599 14.125h10.137c.483-.001.958-.118 1.387-.34l22.13-11.547.926 1.774-22.131 11.546c-.714.371-1.507.566-2.312.567z"/><path d="m84.117 85h-10.137c-.805-.001-1.597-.195-2.311-.567l-22.132-11.546.926-1.774 22.131 11.547c.428.223.903.339 1.386.34h10.137l-25.6-14.125.966-1.75 25.6 14.124c.967.534 1.318 1.75.785 2.717-.352.638-1.023 1.034-1.751 1.034z"/></svg>