<svg width="179" height="179" viewBox="0 0 179 179" fill="none" xmlns="http://www.w3.org/2000/svg">
<path d="M89.5 7.32257L111.535 30.8987L113.086 32.5585L115.356 32.4817L147.608 31.3918L146.518 63.6435L146.442 65.914L148.101 67.4653L171.677 89.5L148.101 111.535L146.442 113.086L146.518 115.356L147.608 147.608L115.356 146.518L113.086 146.442L111.535 148.101L89.5 171.677L67.4653 148.101L65.914 146.442L63.6435 146.518L31.3918 147.608L32.4817 115.356L32.5585 113.086L30.8987 111.535L7.32257 89.5L30.8987 67.4653L32.5585 65.914L32.4817 63.6435L31.3918 31.3918L63.6435 32.4817L65.914 32.5585L67.4653 30.8987L89.5 7.32257Z" stroke="#2AAE69" stroke-width="10"/>
</svg>
